<mxfile host="app.diagrams.net" modified="2024-01-04T11:15:50.180Z" agent="Mozilla/5.0 (Windows NT 10.0; Win64; x64) AppleWebKit/537.36 (KHTML, like Gecko) Chrome/120.0.0.0 Safari/537.36 Edg/120.0.0.0" version="22.1.16" etag="jepxynTYd4v710h-hSl2" type="github">
  <diagram name="第 1 页" id="0YyFP9XgVn9QKt-5C2NZ">
    <mxGraphModel>
      <root>
        <mxCell id="0" />
        <mxCell id="1" parent="0" />
      </root>
    </mxGraphModel>
  </diagram>
</mxfile>
